<?xml version="1.0" encoding="UTF-8" standalone="no"?>
<svg
   version="1.1"
   viewBox="0 0 595.28 500.89001"
   id="svg12"
   sodipodi:docname="house-tsunami.svg"
   width="40"
   height="32"
   inkscape:version="1.4.4 (dcaf3e7d9e, 2026-05-05)"
   xmlns:inkscape="http://www.inkscape.org/namespaces/inkscape"
   xmlns:sodipodi="http://sodipodi.sourceforge.net/DTD/sodipodi-0.dtd"
   xmlns="http://www.w3.org/2000/svg"
   xmlns:svg="http://www.w3.org/2000/svg">
  <sodipodi:namedview
     id="namedview12"
     pagecolor="#ffffff"
     bordercolor="#000000"
     borderopacity="0.25"
     inkscape:showpageshadow="2"
     inkscape:pageopacity="0.0"
     inkscape:pagecheckerboard="0"
     inkscape:deskcolor="#d1d1d1"
     inkscape:zoom="0.73287483"
     inkscape:cx="200.57995"
     inkscape:cy="302.23442"
     inkscape:window-width="1600"
     inkscape:window-height="826"
     inkscape:window-x="0"
     inkscape:window-y="0"
     inkscape:window-maximized="1"
     inkscape:current-layer="svg12" />
  <!-- Generator: Adobe Illustrator 29.4.0, SVG Export Plug-In . SVG Version: 2.1.0 Build 152)  -->
  <defs
     id="defs1">
    <style
       id="style1">
      .st0, .st1 {
        fill: #fff;
      }
      .st1, .st2 {
        display: none;
      }
      path {
        fill: #f5a623
      }
    </style>
  </defs>
  <g
     id="_Слой_1"
     data-name="Слой_1"
     class="st2"
     transform="translate(0,-151.45833)">
    <g
       id="g6">
      <path
         class="st0"
         d="M 583.61,466.5 V 655.04 H 109.15 c 7.36,-2.15 11.52,-7.45 12.08,-15.31 0.92,-12.91 -5.68,-14.15 -13.43,-21.52 C 44.96,558.4 29.7,460.19 58.21,378.85 c 28.45,-81.18 110.99,-145.98 198,-129.13 27.4,5.31 57.92,20.31 72.37,45.77 1.41,2.49 7.39,14.73 5.98,16.81 -0.23,0.33 -0.54,0.42 -0.92,0.45 -1.36,0.11 -11.81,-3.81 -14.43,-4.46 -72.17,-17.8 -135.86,48.31 -132.35,120.93 6.19,128.27 158.6,167.15 260.26,174.11 25.25,1.73 51.97,2.99 77.27,3.68 15.64,0.43 36.19,0.98 38.61,-19.52 l 0.13,-107.87 c 0.53,-1.64 7.14,-0.54 9.09,-0.76 6.18,-0.68 10.09,-6.66 11.39,-12.36 z"
         id="path1" />
      <path
         d="m 238.71,213.89 16.24,1.9 c 48.93,7.22 102.68,36.08 112.74,89.99 2.96,15.89 3.7,40.09 -13.86,47.31 -17.05,7.02 -27.36,-7.84 -42.75,-12.21 -38.12,-10.81 -79.98,21.4 -88.96,58.97 -13,54.39 19.25,99.35 62.75,125.76 15.36,9.32 32.83,17.08 50.02,21.82 l 0.81,-0.58 0.3,-66.77 c -0.52,-2.73 -5.99,-0.97 -8.6,-1.24 -11.27,-1.14 -16.57,-12.09 -13.2,-22.67 1.97,-6.19 9.85,-12.6 14.53,-17.16 33.38,-32.59 68.23,-63.71 101.64,-96.32 13.94,-14.65 27.14,-9.07 40.22,2.75 35.79,32.31 69.07,68.8 104.77,101.36 4.28,3.81 6.95,8.53 8.25,14.2 v 5.49 c -1.3,5.7 -5.21,11.67 -11.39,12.36 -1.95,0.22 -8.56,-0.88 -9.09,0.76 L 563,587.48 c -2.42,20.5 -22.97,19.95 -38.61,19.52 -25.29,-0.7 -52.02,-1.96 -77.27,-3.68 -101.66,-6.96 -254.07,-45.84 -260.26,-174.11 -3.5,-72.62 60.18,-138.73 132.35,-120.93 2.62,0.65 13.07,4.57 14.43,4.46 0.38,-0.03 0.69,-0.12 0.92,-0.45 1.41,-2.08 -4.57,-14.32 -5.98,-16.81 -14.44,-25.46 -44.97,-40.46 -72.37,-45.77 -87.02,-16.86 -169.55,47.94 -198,129.13 -28.51,81.34 -13.25,179.55 49.59,239.36 7.74,7.37 14.35,8.61 13.43,21.52 -0.56,7.86 -4.72,13.16 -12.08,15.31 h -6.7 c -4.02,-1.3 -6.77,-3.37 -10.04,-5.96 C 49.35,614.95 21.98,553.02 14.5,498.69 l -2.74,-28.54 c 0.21,-6.99 -0.28,-14.06 0,-21.05 4.7,-116.42 86.55,-229.07 205.96,-235.22 h 21 z m 238.35,358.78 h 53.83 l 0.47,-2.5 V 454.35 c 0,-2.1 -0.57,-4.19 -2.04,-5.7 l -65.21,-63.14 c -4.68,-3.17 -9.04,-9.67 -13.41,-12.83 -1.5,-1.09 -2.51,-1.35 -4.02,0 -14.25,13.61 -28.37,27.42 -42.66,40.96 -9.9,9.38 -22.78,19.46 -31.74,29.26 -2.23,2.43 -4,5.73 -4.02,9.15 0.31,34.62 -0.55,69.29 0.49,103.87 0.16,1.72 1.54,2.42 3,2.88 14.67,1.29 30.61,6.72 45.07,7.85 1.94,0.15 2.92,0.24 3.26,-2.04 0.38,-2.53 0.4,-7.63 0.5,-10.48 0.4,-12.02 -1.66,-27.02 0.11,-38.33 2.6,-16.62 20.4,-27.31 35.97,-22.45 9.9,3.09 18.61,9.14 19.33,20.47 1.01,15.99 0.31,35.51 0,51.75 -0.03,1.62 -1.39,6.34 1.1,7.07 z"
         id="path2" />
      <path
         class="st0"
         d="m 238.71,213.89 h 344.9 v 247.12 c -1.3,-5.67 -3.98,-10.39 -8.25,-14.2 -35.7,-32.56 -68.98,-69.04 -104.77,-101.36 -13.08,-11.81 -26.29,-17.4 -40.22,-2.75 -33.41,32.61 -68.26,63.73 -101.64,96.32 -4.68,4.56 -12.56,10.98 -14.53,17.16 -3.37,10.58 1.94,21.52 13.2,22.67 2.61,0.26 8.08,-1.49 8.6,1.24 l -0.3,66.77 -0.81,0.58 c -17.18,-4.74 -34.65,-12.5 -50.02,-21.82 -43.5,-26.41 -75.75,-71.37 -62.75,-125.76 8.98,-37.58 50.84,-69.79 88.96,-58.97 15.38,4.36 25.7,19.22 42.75,12.21 17.56,-7.23 16.82,-31.43 13.86,-47.31 -10.06,-53.92 -63.81,-82.78 -112.74,-89.99 l -16.24,-1.9 z"
         id="path3" />
      <path
         class="st0"
         d="M 217.71,213.89 C 98.3,220.04 16.45,332.69 11.75,449.11 V 213.89 Z"
         id="path4" />
      <path
         class="st0"
         d="M 102.45,655.05 H 11.76 V 470.17 l 2.74,28.54 c 7.48,54.34 34.84,116.26 77.91,150.38 3.27,2.59 6.02,4.66 10.04,5.96 z"
         id="path5" />
      <path
         class="st0"
         d="m 477.06,572.67 c -2.49,-0.73 -1.13,-5.45 -1.1,-7.07 0.31,-16.24 1.01,-35.76 0,-51.75 -0.72,-11.33 -9.43,-17.38 -19.33,-20.47 -15.57,-4.86 -33.37,5.83 -35.97,22.45 -1.77,11.31 0.3,26.31 -0.11,38.33 -0.09,2.84 -0.12,7.95 -0.5,10.48 -0.34,2.28 -1.32,2.19 -3.26,2.04 -14.46,-1.13 -30.39,-6.55 -45.07,-7.85 -1.46,-0.46 -2.84,-1.17 -3,-2.88 -1.05,-34.59 -0.19,-69.25 -0.49,-103.87 0.02,-3.42 1.8,-6.72 4.02,-9.15 8.96,-9.8 21.84,-19.88 31.74,-29.26 14.29,-13.54 28.41,-27.35 42.66,-40.96 1.52,-1.35 2.52,-1.09 4.02,0 4.37,3.16 8.73,9.66 13.41,12.83 l 65.21,63.14 c 1.46,1.5 2.03,3.6 2.03,5.7 V 570.2 c 0,0 -0.47,2.5 -0.47,2.5 h -53.83 z"
         id="path6" />
    </g>
  </g>
  <g
     id="_Слой_2"
     data-name="Слой_2"
     transform="translate(-7.880531,-143.84999)">
    <g
       id="g12">
      <path
         class="st1"
         d="M 591.48,426.34 V 614.88 H 117.03 c 7.36,-2.15 11.52,-7.45 12.08,-15.31 0.92,-12.91 -5.68,-14.15 -13.43,-21.52 -62.84,-59.81 -78.1,-158.02 -49.59,-239.36 28.45,-81.18 110.99,-145.98 198,-129.13 27.4,5.31 57.92,20.31 72.37,45.77 1.41,2.49 7.39,14.73 5.98,16.81 -0.23,0.33 -0.54,0.42 -0.92,0.45 -1.36,0.11 -11.81,-3.81 -14.43,-4.46 -72.17,-17.8 -135.86,48.31 -132.35,120.93 6.19,128.27 158.6,167.15 260.26,174.11 25.25,1.73 51.97,2.99 77.27,3.68 15.64,0.43 36.19,0.98 38.61,-19.52 l 0.13,-107.87 c 0.53,-1.64 7.14,-0.54 9.09,-0.76 6.18,-0.68 10.09,-6.66 11.39,-12.36 z"
         id="path7" />
      <path
         d="m 246.59,173.73 16.24,1.9 c 48.93,7.22 102.68,36.08 112.74,89.99 2.96,15.89 3.7,40.09 -13.86,47.31 -17.05,7.02 -27.36,-7.84 -42.75,-12.21 -38.12,-10.81 -79.98,21.4 -88.96,58.97 -13,54.39 19.25,99.35 62.75,125.76 15.36,9.32 32.83,17.08 50.02,21.82 l 0.81,-0.58 0.3,-66.77 c -0.52,-2.73 -5.99,-0.97 -8.6,-1.24 -11.27,-1.14 -16.57,-12.09 -13.2,-22.67 1.97,-6.19 9.85,-12.6 14.53,-17.16 33.38,-32.59 68.23,-63.71 101.64,-96.32 13.94,-14.65 27.14,-9.07 40.22,2.75 35.79,32.31 69.07,68.8 104.77,101.36 4.28,3.81 6.95,8.53 8.25,14.2 v 5.49 c -1.3,5.7 -5.21,11.67 -11.39,12.36 -1.95,0.22 -8.56,-0.88 -9.09,0.76 l -0.13,107.87 c -2.42,20.5 -22.97,19.95 -38.61,19.52 -25.29,-0.7 -52.02,-1.96 -77.27,-3.68 -101.66,-6.96 -254.07,-45.84 -260.26,-174.11 -3.5,-72.62 60.18,-138.73 132.35,-120.93 2.62,0.65 13.07,4.57 14.43,4.46 0.38,-0.03 0.69,-0.12 0.92,-0.45 1.41,-2.08 -4.57,-14.32 -5.98,-16.81 -14.44,-25.46 -44.97,-40.46 -72.37,-45.77 -87.02,-16.86 -169.55,47.94 -198,129.13 -28.51,81.34 -13.25,179.55 49.59,239.36 7.74,7.37 14.35,8.61 13.43,21.52 -0.56,7.86 -4.72,13.16 -12.08,15.31 h -6.7 c -4.02,-1.3 -6.77,-3.37 -10.04,-5.96 C 57.23,574.79 29.86,512.86 22.38,458.53 l -2.74,-28.54 c 0.21,-6.99 -0.28,-14.06 0,-21.05 4.7,-116.42 86.55,-229.07 205.96,-235.22 h 21 z m 238.34,358.78 h 53.83 l 0.47,-2.5 V 414.19 c 0,-2.1 -0.57,-4.19 -2.04,-5.7 l -65.21,-63.14 c -4.68,-3.17 -9.04,-9.67 -13.41,-12.83 -1.5,-1.09 -2.51,-1.35 -4.02,0 -14.25,13.61 -28.37,27.42 -42.66,40.96 -9.9,9.38 -22.78,19.46 -31.74,29.26 -2.23,2.43 -4,5.73 -4.02,9.15 0.31,34.62 -0.55,69.29 0.49,103.87 0.16,1.72 1.54,2.42 3,2.88 14.67,1.29 30.61,6.72 45.07,7.85 1.94,0.15 2.92,0.24 3.26,-2.04 0.38,-2.53 0.4,-7.63 0.5,-10.48 0.4,-12.02 -1.66,-27.02 0.11,-38.33 2.6,-16.62 20.4,-27.31 35.97,-22.45 9.9,3.09 18.61,9.14 19.33,20.47 1.01,15.99 0.31,35.51 0,51.75 -0.03,1.62 -1.39,6.34 1.1,7.07 z"
         id="path8" />
      <path
         class="st1"
         d="m 246.59,173.73 h 344.9 v 247.12 c -1.3,-5.67 -3.98,-10.39 -8.25,-14.2 -35.7,-32.56 -68.98,-69.04 -104.77,-101.36 -13.08,-11.81 -26.29,-17.4 -40.22,-2.75 -33.41,32.61 -68.26,63.73 -101.64,96.32 -4.68,4.56 -12.56,10.98 -14.53,17.16 -3.37,10.58 1.94,21.52 13.2,22.67 2.61,0.26 8.08,-1.49 8.6,1.24 l -0.3,66.77 -0.81,0.58 C 325.59,502.54 308.12,494.78 292.75,485.46 249.25,459.05 217,414.09 230,359.7 c 8.98,-37.58 50.84,-69.79 88.96,-58.97 15.38,4.36 25.7,19.22 42.75,12.21 17.56,-7.23 16.82,-31.43 13.86,-47.31 -10.06,-53.92 -63.81,-82.78 -112.74,-89.99 l -16.24,-1.9 z"
         id="path9" />
      <path
         class="st1"
         d="M 225.59,173.73 C 106.18,179.88 24.33,292.53 19.63,408.95 V 173.73 Z"
         id="path10" />
      <path
         class="st1"
         d="M 110.32,614.88 H 19.63 V 430 l 2.74,28.54 c 7.48,54.34 34.84,116.26 77.91,150.38 3.27,2.59 6.02,4.66 10.04,5.96 z"
         id="path11" />
      <path
         class="st1"
         d="m 484.93,532.51 c -2.49,-0.73 -1.13,-5.45 -1.1,-7.07 0.31,-16.24 1.01,-35.76 0,-51.75 -0.72,-11.33 -9.43,-17.38 -19.33,-20.47 -15.57,-4.86 -33.37,5.83 -35.97,22.45 -1.77,11.31 0.3,26.31 -0.11,38.33 -0.09,2.84 -0.12,7.95 -0.5,10.48 -0.34,2.28 -1.32,2.19 -3.26,2.04 -14.46,-1.13 -30.39,-6.55 -45.07,-7.85 -1.46,-0.46 -2.84,-1.17 -3,-2.88 -1.05,-34.59 -0.19,-69.25 -0.49,-103.87 0.02,-3.42 1.8,-6.72 4.02,-9.15 8.96,-9.8 21.84,-19.88 31.74,-29.26 14.29,-13.54 28.41,-27.35 42.66,-40.96 1.52,-1.35 2.52,-1.09 4.02,0 4.37,3.16 8.73,9.66 13.41,12.83 l 65.21,63.14 c 1.46,1.5 2.03,3.6 2.03,5.7 v 115.82 c 0,0 -0.47,2.5 -0.47,2.5 h -53.83 z"
         id="path12" />
    </g>
  </g>
</svg>
